<?xml version="1.0" encoding="UTF-8" standalone="no"?>
<!-- Created with Inkscape (http://www.inkscape.org/) -->

<svg
   width="151.57951mm"
   height="128mm"
   viewBox="0 0 151.57951 128"
   version="1.1"
   id="svg5"
   xml:space="preserve"
   inkscape:version="1.2 (dc2aeda, 2022-05-15)"
   sodipodi:docname="dns_records_transfer.svg"
   inkscape:export-filename="dns_records_transfer_logo.svg"
   inkscape:export-xdpi="96"
   inkscape:export-ydpi="96"
   xmlns:inkscape="http://www.inkscape.org/namespaces/inkscape"
   xmlns:sodipodi="http://sodipodi.sourceforge.net/DTD/sodipodi-0.dtd"
   xmlns:xlink="http://www.w3.org/1999/xlink"
   xmlns="http://www.w3.org/2000/svg"
   xmlns:svg="http://www.w3.org/2000/svg"><sodipodi:namedview
     id="namedview7"
     pagecolor="#ffffff"
     bordercolor="#000000"
     borderopacity="0.25"
     inkscape:showpageshadow="2"
     inkscape:pageopacity="0.0"
     inkscape:pagecheckerboard="true"
     inkscape:deskcolor="#d1d1d1"
     inkscape:document-units="mm"
     showgrid="false"
     inkscape:zoom="0.30289983"
     inkscape:cx="-211.29097"
     inkscape:cy="69.329851"
     inkscape:window-width="1512"
     inkscape:window-height="916"
     inkscape:window-x="0"
     inkscape:window-y="38"
     inkscape:window-maximized="1"
     inkscape:current-layer="g529" /><defs
     id="defs2"><linearGradient
       id="linearGradient1321"
       inkscape:swatch="solid"><stop
         style="stop-color:#ffffff;stop-opacity:1;"
         offset="0"
         id="stop1319" /></linearGradient><linearGradient
       inkscape:collect="always"
       xlink:href="#linearGradient1321"
       id="linearGradient1323"
       x1="487.56418"
       y1="458.16019"
       x2="772.95917"
       y2="458.16019"
       gradientUnits="userSpaceOnUse"
       gradientTransform="matrix(1.9191856,0,0,1.1986594,-329.58655,39.999878)" /></defs><g
     inkscape:label="Layer 1"
     inkscape:groupmode="layer"
     id="layer1"
     transform="translate(-59.093012,-112.63626)"><g
       id="g529"
       transform="matrix(0.19166324,0,0,0.19166324,-61.604958,39.729175)"><g
         id="g5072"
         style="fill:#087295;fill-opacity:1"
         transform="matrix(1.5828863,0,0,1.5828863,-367.06669,-221.72507)"><path
           d="m 722.57116,464.30004 c 18.02448,-15.24671 38.65558,-27.5574 61.39415,-36.72603 -16.63797,18.59481 -30.33658,41.82544 -40.31938,68.35266 h 36.15989 c 5.71238,-13.54691 12.58942,-25.96062 20.52018,-37.24112 11.53568,-16.17389 25.17883,-29.2057 39.37657,-37.6532 7.59801,-4.4813 15.30694,-7.72638 23.18226,-9.63222 v 84.52654 h 34.21879 v -84.52654 c 7.87531,1.90584 15.58424,5.15092 23.18225,9.63222 14.2532,8.39599 27.84094,21.47931 39.32112,37.6532 7.98624,11.22899 14.86318,23.69421 20.63107,37.18961 h 36.04894 c -9.9273,-26.52722 -23.68139,-49.75785 -40.31941,-68.35266 22.84951,9.22014 43.36971,21.42781 61.44971,36.72604 11.5357,9.63221 21.5739,20.2946 30.2811,31.62662 h 39.4321 C 1064.038,427.21344 978.5743,380.39162 880.02195,380.39162 c -98.55232,0 -184.07157,46.82182 -227.16395,115.48354 h 39.37657 c 8.70721,-11.33202 18.80091,-21.94291 30.33659,-31.57512 z"
           fill="#5fffba"
           id="path513"
           style="fill:#087295;fill-opacity:1;stroke-width:0.563711" /><path
           d="m 1037.4727,718.44625 c -18.0799,15.24672 -38.60009,27.50589 -61.44961,36.72603 16.69345,-18.54329 30.39211,-41.82543 40.31931,-68.35266 h -36.10434 c -5.71238,13.54692 -12.64483,25.96062 -20.63107,37.24113 -11.48018,16.17388 -25.17882,29.2057 -39.37658,37.70471 -7.59801,4.42978 -15.3624,7.72637 -23.12679,9.5807 v -84.57804 h -34.16333 v 84.52653 c -7.81985,-1.90584 -15.58425,-5.15091 -23.18226,-9.5807 -14.2532,-8.4475 -27.78544,-21.47932 -39.37657,-37.70471 -7.93077,-11.28051 -14.8078,-23.69421 -20.6311,-37.24112 h -36.10443 c 9.92733,26.52722 23.68141,49.75785 40.31938,68.35266 -22.73857,-9.22015 -43.36967,-21.42781 -61.39415,-36.72604 -11.53568,-9.63222 -21.62938,-20.29461 -30.33659,-31.62662 H 652.858 c 43.14785,68.71322 128.61163,115.53505 227.16395,115.53505 98.55235,0 184.07155,-46.82183 227.16385,-115.53505 h -39.432 c -8.7071,11.38352 -18.7454,22.04592 -30.2811,31.67813 z"
           fill="#5fffba"
           id="path517"
           style="fill:#087295;fill-opacity:1;stroke-width:0.563711" /></g><g
         id="g5077"
         transform="matrix(1.5857169,0,0,1.5828863,-370.26347,-221.72507)"><rect
           style="fill:#fce25c;fill-opacity:1;stroke:url(#linearGradient1323);stroke-width:0;stroke-linejoin:round;stroke-dasharray:none;stroke-opacity:1"
           id="rect679"
           width="498.7421"
           height="217.10442"
           x="630.63165"
           y="480.6257"
           ry="56.635941" /><text
           xml:space="preserve"
           style="font-style:normal;font-variant:normal;font-weight:bold;font-stretch:normal;font-size:43.8823px;font-family:Monaco;-inkscape-font-specification:'Monaco Bold';text-align:start;text-anchor:start;fill:#087295;fill-opacity:1;stroke:#ffffff;stroke-width:0;stroke-linejoin:round;stroke-dasharray:none;stroke-opacity:1"
           x="654.86646"
           y="577.53455"
           id="text3881"><tspan
             sodipodi:role="line"
             style="font-style:normal;font-variant:normal;font-weight:bold;font-stretch:normal;font-family:Monaco;-inkscape-font-specification:'Monaco Bold';text-align:start;text-anchor:start;fill:#087295;fill-opacity:1;stroke-width:0"
             x="654.86646"
             y="577.53455"
             id="tspan7596">DNS Records</tspan><tspan
             sodipodi:role="line"
             style="font-style:normal;font-variant:normal;font-weight:bold;font-stretch:normal;font-family:Monaco;-inkscape-font-specification:'Monaco Bold';text-align:start;text-anchor:start;fill:#087295;fill-opacity:1;stroke-width:0"
             x="654.86646"
             y="632.38745"
             id="tspan7598" /></text><text
           xml:space="preserve"
           style="font-style:normal;font-variant:normal;font-weight:bold;font-stretch:normal;font-size:68.1589px;font-family:Monaco;-inkscape-font-specification:'Monaco Bold';text-align:start;text-anchor:start;fill:#087295;fill-opacity:1;stroke:#ffffff;stroke-width:0;stroke-linejoin:round;stroke-dasharray:none;stroke-opacity:1"
           x="654.40826"
           y="636.61743"
           id="text3881-1"><tspan
             sodipodi:role="line"
             style="font-style:normal;font-variant:normal;font-weight:bold;font-stretch:normal;font-family:Montserrat;-inkscape-font-specification:'Montserrat Bold';text-align:start;text-anchor:start;fill:#087295;fill-opacity:1;stroke-width:0"
             x="654.40826"
             y="636.61743"
             id="tspan7598-7">Transfer</tspan></text></g></g><g
       id="g235"
       transform="matrix(0.06850148,0,0,0.06850148,164.5575,159.85219)"><circle
         style="fill:#087295;fill-opacity:1"
         cx="256"
         cy="256"
         r="256"
         id="circle206" /><path
         style="fill:#f5f5f5"
         d="m 180,84 h 176 c 4.4,0 8,3.6 8,8 v 328 c 0,4.4 -3.6,8 -8,8 H 108 c -4.4,0 -8,-3.6 -8,-8 V 168 Z"
         id="path208" /><path
         style="fill:#e6e6e6"
         d="m 172,168 c 4.4,0 8,-3.6 8,-8 V 84 l -80,84 z"
         id="path210" /><path
         style="fill:#fce25c;fill-opacity:1"
         d="m 412,376 c 0,8.8 -7.2,16 -16,16 H 252 c -8.8,0 -16,-7.2 -16,-16 v -64 c 0,-8.8 7.2,-16 16,-16 h 144 c 8.8,0 16,7.2 16,16 z"
         id="path212" /><g
         id="g220"
         style="fill:#087295;fill-opacity:1">
	<path
   style="fill:#087295;fill-opacity:1;stroke-width:1.42411"
   d="m 294.10626,352.23041 9.5814,3.03619 c -1.46968,5.34326 -3.91915,9.30797 -7.31991,11.89985 -3.41786,2.59187 -7.75285,3.89066 -13.00496,3.89066 -6.49962,0 -11.83718,-2.22161 -16.02405,-6.65343 -4.18118,-4.43752 -6.27747,-10.51561 -6.27747,-18.20579 0,-8.15159 2.10198,-14.46894 6.30025,-18.97481 4.20397,-4.50588 9.7352,-6.76736 16.58801,-6.76736 5.99264,0 10.846,1.77729 14.59425,5.30907 2.22731,2.09059 3.89636,5.104 5.00716,9.01176 l -9.78077,2.33553 c -0.58673,-2.52921 -1.78298,-4.54005 -3.62862,-6.00973 -1.83425,-1.46968 -4.06725,-2.20452 -6.69331,-2.20452 -3.63432,0 -6.56798,1.30448 -8.82947,3.90775 -2.26148,2.60327 -3.39507,6.81863 -3.39507,12.65177 0,6.19202 1.11081,10.58967 3.33811,13.21572 2.233,2.62605 5.11539,3.93623 8.67566,3.93623 2.62606,0 4.88184,-0.83168 6.77306,-2.50073 1.89121,-1.66905 3.27545,-4.29511 4.09573,-7.87816 z"
   id="path214" />
	<path
   style="fill:#087295;fill-opacity:1;stroke-width:1.42411"
   d="m 309.66321,354.29821 9.61558,-0.93421 c 0.58673,3.22418 1.7545,5.59389 3.52039,7.10914 1.76589,1.51525 4.1527,2.26718 7.16041,2.26718 3.19001,0 5.57681,-0.67787 7.1946,-2.01653 1.61778,-1.33867 2.42668,-2.92227 2.42668,-4.72235 0,-1.15637 -0.34749,-2.14185 -1.02536,-2.96214 -0.67788,-0.81459 -1.85704,-1.52095 -3.55457,-2.11338 -1.15068,-0.39875 -3.79383,-1.1108 -7.91235,-2.13616 -5.30337,-1.31018 -9.01175,-2.92796 -11.14791,-4.84196 -3.00202,-2.70011 -4.50588,-5.98125 -4.50588,-9.84913 0,-2.49504 0.70636,-4.82488 2.11908,-6.99522 1.41271,-2.17603 3.44634,-3.828 6.10657,-4.96159 2.66023,-1.13359 5.86163,-1.70323 9.62127,-1.70323 6.14075,0 10.77195,1.34436 13.8765,4.03877 3.10456,2.69441 4.72804,6.28886 4.88184,10.78904 l -9.87761,0.42723 c -0.42153,-2.50643 -1.32157,-4.31789 -2.72289,-5.4173 -1.40132,-1.09942 -3.47482,-1.65197 -6.26038,-1.65197 -2.871,0 -5.11539,0.59243 -6.75027,1.77159 -1.04814,0.76332 -1.56082,1.77729 -1.56082,3.0362 0,1.15637 0.48989,2.14755 1.46968,2.96784 1.24752,1.05384 4.27232,2.13616 9.08011,3.26975 4.80779,1.13359 8.36806,2.30705 10.66372,3.52039 2.30136,1.21334 4.11282,2.871 5.40591,4.97299 1.29309,2.10198 1.95388,4.69955 1.95388,7.79271 0,2.80265 -0.78041,5.4287 -2.33554,7.87817 -1.55513,2.44946 -3.75964,4.26662 -6.60786,5.45718 -2.84821,1.19055 -6.39709,1.78298 -10.64663,1.78298 -6.18632,0 -10.93714,-1.4355 -14.25247,-4.29511 -3.31532,-2.85961 -5.29198,-7.00661 -5.93568,-12.48088 z"
   id="path216" />
	<path
   style="fill:#087295;fill-opacity:1;stroke-width:1.42411"
   d="M 370.23905,370.21973 352.75101,321.2874 H 363.466 l 12.38404,36.21221 11.98529,-36.21221 h 10.48143 l -17.52792,48.93233 z"
   id="path218" />
</g></g></g></svg>
